<?xml version="1.0" encoding="iso-8859-1"?>
<!-- Generator: Adobe Illustrator 19.0.0, SVG Export Plug-In . SVG Version: 6.00 Build 0)  -->
<svg version="1.1" id="Capa_1" xmlns="http://www.w3.org/2000/svg" xmlns:xlink="http://www.w3.org/1999/xlink" x="0px" y="0px"
	 viewBox="0 0 512 512" style="enable-background:new 0 0 512 512;" xml:space="preserve">
<path style="fill:#5B699C;" d="M256,0C114.84,0,0,114.842,0,256s114.84,256,256,256c141.158,0,256-114.842,256-256S397.158,0,256,0z
	"/>
<path style="fill:#2D4175;" d="M256,0v512c141.158,0,256-114.842,256-256S397.158,0,256,0z"/>
<path style="fill:#D4CBF6;" d="M383.147,236.268l-167.564-104.73c-7.174-4.485-16.215-4.723-23.617-0.621
	c-7.399,4.102-11.99,11.895-11.99,20.356v209.455c0,8.459,4.591,16.254,11.99,20.356c3.516,1.949,7.401,2.917,11.281,2.917
	c4.288,0,8.569-1.184,12.336-3.537L383.147,275.74c6.805-4.251,10.938-11.711,10.938-19.735
	C394.085,247.979,389.952,240.521,383.147,236.268z"/>
<path style="fill:#AB99EC;" d="M383.147,236.268L256,156.799v198.405l127.147-79.465c6.805-4.251,10.938-11.711,10.938-19.735
	C394.085,247.979,389.952,240.521,383.147,236.268z"/>
<g>
</g>
<g>
</g>
<g>
</g>
<g>
</g>
<g>
</g>
<g>
</g>
<g>
</g>
<g>
</g>
<g>
</g>
<g>
</g>
<g>
</g>
<g>
</g>
<g>
</g>
<g>
</g>
<g>
</g>
</svg>
